<svg data-v-423bf9ae="" xmlns="http://www.w3.org/2000/svg" viewBox="0 0 738.0836595043619 60" class="font"><!----><!----><!----><g data-v-423bf9ae="" id="049db96b-5398-438f-9e06-ce00899cb9f3" fill="white" transform="matrix(5.226480960845947,0,0,5.226480960845947,-3.0836193561553955,-14.634147644042969)"><path d="M6.20 14L5.60 11.33L2.80 11.33L2.20 14L0.59 14L2.79 4.20L5.61 4.20L7.81 14L6.20 14ZM3.09 10.00L5.31 10.00L4.26 5.35L4.14 5.35L3.09 10.00ZM12.98 6.83L12.98 6.83Q14.48 6.83 15.27 7.82L15.27 7.82L15.27 7.82Q16.07 8.81 16.07 10.51L16.07 10.51L16.07 10.51Q16.07 10.81 16.06 10.95L16.06 10.95L11.24 10.95L11.24 10.95Q11.31 11.96 11.75 12.38L11.75 12.38L11.75 12.38Q12.19 12.81 12.95 12.81L12.95 12.81L12.95 12.81Q14 12.81 14.53 11.94L14.53 11.94L15.86 12.67L15.86 12.67Q15.40 13.41 14.62 13.78L14.62 13.78L14.62 13.78Q13.83 14.15 12.94 14.15L12.94 14.15L12.94 14.15Q12.01 14.15 11.26 13.76L11.26 13.76L11.26 13.76Q10.51 13.37 10.07 12.54L10.07 12.54L10.07 12.54Q9.63 11.72 9.63 10.49L9.63 10.49L9.63 10.49Q9.63 9.24 10.08 8.42L10.08 8.42L10.08 8.42Q10.53 7.60 11.28 7.22L11.28 7.22L11.28 7.22Q12.04 6.83 12.98 6.83L12.98 6.83ZM11.28 9.74L14.48 9.74L14.48 9.74Q14.41 8.96 14.04 8.56L14.04 8.56L14.04 8.56Q13.66 8.16 12.95 8.16L12.95 8.16L12.95 8.16Q12.28 8.16 11.84 8.53L11.84 8.53L11.84 8.53Q11.41 8.89 11.28 9.74L11.28 9.74ZM23.37 8.22L23.37 8.22Q22.69 8.22 22.22 8.53L22.22 8.53L22.22 8.53Q21.74 8.83 21.53 9.23L21.53 9.23L21.53 12.67L23.74 12.67L23.74 14L18.24 14L18.24 12.67L19.95 12.67L19.95 8.33L18.24 8.33L18.24 7L21.11 7L21.38 7.85L21.38 7.85Q21.76 7.36 22.33 7.10L22.33 7.10L22.33 7.10Q22.90 6.83 23.65 6.83L23.65 6.83L23.65 6.83Q24.32 6.83 24.85 7.10L24.85 7.10L24.39 8.44L24.39 8.44Q24.32 8.37 24.05 8.29L24.05 8.29L24.05 8.29Q23.77 8.22 23.37 8.22L23.37 8.22ZM29.50 5.46L29.50 5.46Q28.97 5.46 28.61 5.10L28.61 5.10L28.61 5.10Q28.25 4.75 28.25 4.23L28.25 4.23L28.25 4.23Q28.25 3.71 28.61 3.35L28.61 3.35L28.61 3.35Q28.97 3.00 29.50 3.00L29.50 3.00L29.50 3.00Q30.03 3.00 30.38 3.35L30.38 3.35L30.38 3.35Q30.73 3.70 30.73 4.23L30.73 4.23L30.73 4.23Q30.73 4.75 30.38 5.10L30.38 5.10L30.38 5.10Q30.03 5.46 29.50 5.46L29.50 5.46ZM30.31 12.67L32.21 12.67L32.21 14L28.74 14L28.74 8.33L26.40 8.33L26.40 7L30.31 7L30.31 12.67ZM41.62 13.31L40.61 14.28L39.73 13.41L39.73 13.41Q38.81 14.15 37.51 14.15L37.51 14.15L37.51 14.15Q36.01 14.15 35.29 13.59L35.29 13.59L35.29 13.59Q34.58 13.03 34.58 11.86L34.58 11.86L34.58 11.86Q34.58 10.68 35.36 10.13L35.36 10.13L35.36 10.13Q36.13 9.58 37.79 9.58L37.79 9.58L39.21 9.58L39.21 9.21L39.21 9.21Q39.21 8.65 38.88 8.41L38.88 8.41L38.88 8.41Q38.54 8.16 37.79 8.16L37.79 8.16L37.79 8.16Q37.11 8.16 36.69 8.31L36.69 8.31L36.69 8.31Q36.26 8.46 35.99 8.76L35.99 8.76L34.99 7.78L34.99 7.78Q35.42 7.35 36.18 7.09L36.18 7.09L36.18 7.09Q36.93 6.83 37.90 6.83L37.90 6.83L37.90 6.83Q39.24 6.83 40.01 7.36L40.01 7.36L40.01 7.36Q40.78 7.88 40.78 8.85L40.78 8.85L40.78 12.47L41.62 13.31ZM36.13 11.86L36.13 11.86Q36.13 12.39 36.48 12.61L36.48 12.61L36.48 12.61Q36.83 12.84 37.74 12.84L37.74 12.84L37.74 12.84Q38.18 12.84 38.57 12.68L38.57 12.68L38.57 12.68Q38.96 12.53 39.21 12.29L39.21 12.29L39.21 10.82L38.26 10.82L38.26 10.82Q37.34 10.82 36.89 10.92L36.89 10.92L36.89 10.92Q36.44 11.02 36.29 11.23L36.29 11.23L36.29 11.23Q36.13 11.44 36.13 11.86L36.13 11.86ZM47.84 12.89L47.84 12.89Q48.15 12.89 48.61 12.82L48.61 12.82L48.61 12.82Q49.07 12.75 49.28 12.71L49.28 12.71L49.28 14L49.28 14Q48.36 14.15 47.54 14.15L47.54 14.15L47.54 14.15Q45.36 14.15 45.36 12.29L45.36 12.29L45.36 4.13L43.23 4.13L43.23 2.80L46.93 2.80L46.93 11.87L46.93 11.87Q46.93 12.50 47.19 12.70L47.19 12.70L47.19 12.70Q47.45 12.89 47.84 12.89L47.84 12.89ZM65.00 14L64.40 11.33L61.60 11.33L61.00 14L59.39 14L61.59 4.20L64.41 4.20L66.61 14L65.00 14ZM61.89 10.00L64.11 10.00L63.06 5.35L62.94 5.35L61.89 10.00ZM72.73 2.80L74.30 2.80L74.30 14L73.07 14L72.80 13.20L72.80 13.20Q72.06 14.15 70.87 14.15L70.87 14.15L70.87 14.15Q69.45 14.15 68.68 13.25L68.68 13.25L68.68 13.25Q67.90 12.35 67.90 10.49L67.90 10.49L67.90 10.49Q67.90 8.61 68.61 7.73L68.61 7.73L68.61 7.73Q69.33 6.85 70.73 6.85L70.73 6.85L70.73 6.85Q71.34 6.85 71.86 7.08L71.86 7.08L71.86 7.08Q72.37 7.31 72.73 7.71L72.73 7.71L72.73 2.80ZM71.18 12.81L71.18 12.81Q71.75 12.81 72.16 12.47L72.16 12.47L72.16 12.47Q72.56 12.14 72.73 11.65L72.73 11.65L72.73 9.42L72.73 9.42Q72.51 8.92 72.08 8.55L72.08 8.55L72.08 8.55Q71.65 8.19 71.04 8.19L71.04 8.19L71.04 8.19Q70.15 8.19 69.81 8.71L69.81 8.71L69.81 8.71Q69.47 9.24 69.47 10.49L69.47 10.49L69.47 10.49Q69.47 11.70 69.87 12.26L69.87 12.26L69.87 12.26Q70.28 12.81 71.18 12.81L71.18 12.81ZM81.19 7L82.82 7L81.12 14L78.54 14L76.83 7L78.47 7L79.69 12.67L79.97 12.67L81.19 7ZM88.58 6.83L88.58 6.83Q90.08 6.83 90.87 7.82L90.87 7.82L90.87 7.82Q91.67 8.81 91.67 10.51L91.67 10.51L91.67 10.51Q91.67 10.81 91.66 10.95L91.66 10.95L86.84 10.95L86.84 10.95Q86.91 11.96 87.35 12.38L87.35 12.38L87.35 12.38Q87.79 12.81 88.55 12.81L88.55 12.81L88.55 12.81Q89.60 12.81 90.13 11.94L90.13 11.94L91.46 12.67L91.46 12.67Q91.00 13.41 90.22 13.78L90.22 13.78L90.22 13.78Q89.43 14.15 88.54 14.15L88.54 14.15L88.54 14.15Q87.61 14.15 86.86 13.76L86.86 13.76L86.86 13.76Q86.11 13.37 85.67 12.54L85.67 12.54L85.67 12.54Q85.23 11.72 85.23 10.49L85.23 10.49L85.23 10.49Q85.23 9.24 85.68 8.42L85.68 8.42L85.68 8.42Q86.13 7.60 86.88 7.22L86.88 7.22L86.88 7.22Q87.64 6.83 88.58 6.83L88.58 6.83ZM86.88 9.74L90.08 9.74L90.08 9.74Q90.01 8.96 89.64 8.56L89.64 8.56L89.64 8.56Q89.26 8.16 88.55 8.16L88.55 8.16L88.55 8.16Q87.88 8.16 87.44 8.53L87.44 8.53L87.44 8.53Q87.01 8.89 86.88 9.74L86.88 9.74ZM97.30 6.85L97.30 6.85Q98.55 6.85 99.20 7.62L99.20 7.62L99.20 7.62Q99.86 8.39 99.86 10.05L99.86 10.05L99.86 14L98.29 14L98.29 10.33L98.29 10.33Q98.29 9.53 98.20 9.09L98.20 9.09L98.20 9.09Q98.11 8.64 97.84 8.41L97.84 8.41L97.84 8.41Q97.57 8.19 97.02 8.19L97.02 8.19L97.02 8.19Q96.36 8.19 95.93 8.54L95.93 8.54L95.93 8.54Q95.49 8.89 95.27 9.34L95.27 9.34L95.27 14L93.70 14L93.70 9.17L93.70 7L94.86 7L94.86 7Q94.89 7.07 94.96 7.31L94.96 7.31L94.96 7.31Q95.02 7.55 95.12 7.84L95.12 7.84L95.12 7.84Q95.48 7.36 96.03 7.10L96.03 7.10L96.03 7.10Q96.59 6.85 97.30 6.85L97.30 6.85ZM107.70 8.33L105.24 8.33L105.24 11.83L105.24 11.83Q105.24 12.45 105.43 12.67L105.43 12.67L105.43 12.67Q105.63 12.89 105.99 12.89L105.99 12.89L105.99 12.89Q106.46 12.89 107.27 12.71L107.27 12.71L107.27 14L107.27 14Q107.23 14 106.85 14.08L106.85 14.08L106.85 14.08Q106.47 14.15 105.70 14.15L105.70 14.15L105.70 14.15Q103.67 14.15 103.67 12.29L103.67 12.29L103.67 8.33L101.71 8.33L101.71 7L103.67 7L103.67 4.48L105.24 4.48L105.24 7L107.70 7L107.70 8.33ZM116.44 14L115.12 14L114.97 13.22L114.97 13.22Q114.60 13.66 114.06 13.90L114.06 13.90L114.06 13.90Q113.51 14.14 112.81 14.14L112.81 14.14L112.81 14.14Q111.54 14.14 110.91 13.38L110.91 13.38L110.91 13.38Q110.28 12.61 110.28 10.93L110.28 10.93L110.28 6.99L111.85 6.99L111.85 10.51L111.85 10.51Q111.85 11.34 111.94 11.82L111.94 11.82L111.94 11.82Q112.04 12.31 112.32 12.55L112.32 12.55L112.32 12.55Q112.60 12.80 113.15 12.80L113.15 12.80L113.15 12.80Q113.76 12.80 114.18 12.52L114.18 12.52L114.18 12.52Q114.60 12.24 114.84 11.83L114.84 11.83L114.84 6.99L116.42 6.99L116.42 12.59L116.44 14ZM124.17 8.22L124.17 8.22Q123.49 8.22 123.02 8.53L123.02 8.53L123.02 8.53Q122.54 8.83 122.33 9.23L122.33 9.23L122.33 12.67L124.54 12.67L124.54 14L119.04 14L119.04 12.67L120.75 12.67L120.75 8.33L119.04 8.33L119.04 7L121.91 7L122.18 7.85L122.18 7.85Q122.56 7.36 123.13 7.10L123.13 7.10L123.13 7.10Q123.70 6.83 124.45 6.83L124.45 6.83L124.45 6.83Q125.12 6.83 125.65 7.10L125.65 7.10L125.19 8.44L125.19 8.44Q125.12 8.37 124.85 8.29L124.85 8.29L124.85 8.29Q124.57 8.22 124.17 8.22L124.17 8.22ZM130.58 6.83L130.58 6.83Q132.08 6.83 132.87 7.82L132.87 7.82L132.87 7.82Q133.67 8.81 133.67 10.51L133.67 10.51L133.67 10.51Q133.67 10.81 133.66 10.95L133.66 10.95L128.84 10.95L128.84 10.95Q128.91 11.96 129.35 12.38L129.35 12.38L129.35 12.38Q129.79 12.81 130.55 12.81L130.55 12.81L130.55 12.81Q131.60 12.81 132.13 11.94L132.13 11.94L133.46 12.67L133.46 12.67Q133.00 13.41 132.22 13.78L132.22 13.78L132.22 13.78Q131.43 14.15 130.54 14.15L130.54 14.15L130.54 14.15Q129.61 14.15 128.86 13.76L128.86 13.76L128.86 13.76Q128.11 13.37 127.67 12.54L127.67 12.54L127.67 12.54Q127.23 11.72 127.23 10.49L127.23 10.49L127.23 10.49Q127.23 9.24 127.68 8.42L127.68 8.42L127.68 8.42Q128.13 7.60 128.88 7.22L128.88 7.22L128.88 7.22Q129.64 6.83 130.58 6.83L130.58 6.83ZM128.88 9.74L132.08 9.74L132.08 9.74Q132.01 8.96 131.64 8.56L131.64 8.56L131.64 8.56Q131.26 8.16 130.55 8.16L130.55 8.16L130.55 8.16Q129.88 8.16 129.44 8.53L129.44 8.53L129.44 8.53Q129.01 8.89 128.88 9.74L128.88 9.74ZM138.63 14.15L138.63 14.15Q137.62 14.15 136.72 13.83L136.72 13.83L136.72 13.83Q135.83 13.51 135.39 12.87L135.39 12.87L136.68 12.03L136.68 12.03Q136.89 12.39 137.48 12.61L137.48 12.61L137.48 12.61Q138.07 12.84 138.68 12.84L138.68 12.84L138.68 12.84Q139.33 12.84 139.77 12.64L139.77 12.64L139.77 12.64Q140.21 12.45 140.21 12.04L140.21 12.04L140.21 12.04Q140.21 11.75 139.94 11.55L139.94 11.55L139.94 11.55Q139.68 11.35 139.39 11.27L139.39 11.27L139.39 11.27Q139.10 11.19 138.57 11.05L138.57 11.05L138.57 11.05Q137.52 10.81 136.65 10.29L136.65 10.29L136.65 10.29Q135.79 9.77 135.79 8.76L135.79 8.76L135.79 8.76Q135.79 8.12 136.23 7.69L136.23 7.69L136.23 7.69Q136.68 7.25 137.36 7.04L137.36 7.04L137.36 7.04Q138.04 6.83 138.75 6.83L138.75 6.83L138.75 6.83Q139.61 6.83 140.39 7.15L140.39 7.15L140.39 7.15Q141.16 7.46 141.58 8.12L141.58 8.12L140.38 8.90L140.38 8.90Q140.14 8.53 139.66 8.33L139.66 8.33L139.66 8.33Q139.19 8.13 138.73 8.13L138.73 8.13L138.73 8.13Q138.19 8.13 137.78 8.32L137.78 8.32L137.78 8.32Q137.37 8.50 137.37 8.85L137.37 8.85L137.37 8.85Q137.37 9.17 137.75 9.35L137.75 9.35L137.75 9.35Q138.14 9.53 138.75 9.70L138.75 9.70L139.06 9.79L139.06 9.79Q139.79 9.98 140.34 10.20L140.34 10.20L140.34 10.20Q140.90 10.42 141.35 10.86L141.35 10.86L141.35 10.86Q141.81 11.31 141.81 12.00L141.81 12.00L141.81 12.00Q141.81 12.71 141.35 13.20L141.35 13.20L141.35 13.20Q140.90 13.69 140.18 13.92L140.18 13.92L140.18 13.92Q139.45 14.15 138.63 14.15L138.63 14.15Z"></path></g><!----><!----></svg>